<?xml version="1.0" standalone="no"?><!DOCTYPE svg PUBLIC "-//W3C//DTD SVG 1.1//EN" "http://www.w3.org/Graphics/SVG/1.1/DTD/svg11.dtd"><svg t="1704096063284" class="icon" viewBox="0 0 1024 1024" version="1.1" xmlns="http://www.w3.org/2000/svg" p-id="1580" xmlns:xlink="http://www.w3.org/1999/xlink" width="200" height="200"><path d="M233 199m58.03 0l406.94 0q58.03 0 58.03 58.03l0 502.94q0 58.03-58.03 58.03l-406.94 0q-58.03 0-58.03-58.03l0-502.94q0-58.03 58.03-58.03Z" fill="#6052aa" p-id="1581" data-spm-anchor-id="a313x.collections_detail.0.i14.7dbd3a81XZT68V" class=""></path><path d="M772.25 325L840 364.1a30.38 30.38 0 0 1 11.1 41.51L694.29 676.85a30.36 30.36 0 0 1-19.67 14.44l-51.9 11.61a30.38 30.38 0 0 1-35.63-20.6l-15.84-50.76a30.4 30.4 0 0 1 2.7-24.26l156.79-271.23A30.38 30.38 0 0 1 772.25 325z" fill="#ceb2e0" p-id="1582" data-spm-anchor-id="a313x.collections_detail.0.i15.7dbd3a81XZT68V" class=""></path><path d="M461.83 328.12H337.92a25 25 0 1 1 0-50h123.91a25 25 0 1 1 0 50zM570 445.12H337.92a25 25 0 1 1 0-50H570a25 25 0 0 1 0 50z" fill="#FFFFFF" p-id="1583"></path></svg>